<?xml version="1.0" encoding="UTF-8"?>
<svg width="38px" height="33px" viewBox="0 0 38 33" version="1.1" xmlns="http://www.w3.org/2000/svg" xmlns:xlink="http://www.w3.org/1999/xlink">
    <defs>
        <filter x="-15.0%" y="-1.3%" width="130.0%" height="102.5%" filterUnits="objectBoundingBox" id="filter-1">
            <feOffset dx="0" dy="2" in="SourceAlpha" result="shadowOffsetOuter1"></feOffset>
            <feGaussianBlur stdDeviation="2" in="shadowOffsetOuter1" result="shadowBlurOuter1"></feGaussianBlur>
            <feColorMatrix values="0 0 0 0 0   0 0 0 0 0   0 0 0 0 0  0 0 0 0.5 0" type="matrix" in="shadowBlurOuter1" result="shadowMatrixOuter1"></feColorMatrix>
            <feMerge>
                <feMergeNode in="shadowMatrixOuter1"></feMergeNode>
                <feMergeNode in="SourceGraphic"></feMergeNode>
            </feMerge>
        </filter>
        <filter x="-8.6%" y="-17.1%" width="117.1%" height="134.3%" filterUnits="objectBoundingBox" id="filter-2">
            <feOffset dx="0" dy="2" in="SourceAlpha" result="shadowOffsetOuter1"></feOffset>
            <feGaussianBlur stdDeviation="2" in="shadowOffsetOuter1" result="shadowBlurOuter1"></feGaussianBlur>
            <feColorMatrix values="0 0 0 0 0   0 0 0 0 0   0 0 0 0 0  0 0 0 0.2 0" type="matrix" in="shadowBlurOuter1" result="shadowMatrixOuter1"></feColorMatrix>
            <feMerge>
                <feMergeNode in="shadowMatrixOuter1"></feMergeNode>
                <feMergeNode in="SourceGraphic"></feMergeNode>
            </feMerge>
        </filter>
    </defs>
    <g id="Page-1" stroke="none" stroke-width="1" fill="none" fill-rule="evenodd">
        <g id="Desktop-HD-Copy" transform="translate(-48.000000, -215.000000)" fill="#FFFFFF" fill-rule="nonzero">
            <g id="Sidebar" filter="url(#filter-1)" transform="translate(0.000000, 79.000000)">
                <g id="btn-home" filter="url(#filter-2)" transform="translate(0.000000, 120.000000)">
                    <path d="M68.0780916,21.1875377 C68.0780916,21.4870164 67.9732744,21.7415726 67.7636392,21.9512078 C67.5540041,22.1608429 67.2994478,22.2656601 66.9999692,22.2656601 C66.7004905,22.2656601 66.4459342,22.1608429 66.2362991,21.9512078 C66.026664,21.7415726 65.9218467,21.4870164 65.9218467,21.1875377 C65.9218467,20.888059 66.026664,20.6335028 66.2362991,20.4238676 C66.4459342,20.2142325 66.7004905,20.1094153 66.9999692,20.1094153 C67.2994478,20.1094153 67.5540041,20.2142325 67.7636392,20.4238676 C67.9732744,20.6335028 68.0780916,20.888059 68.0780916,21.1875377 Z M78.1405676,31.2500137 C78.1405676,31.5494924 78.0357504,31.8040486 77.8261152,32.0136838 C77.6164801,32.2233189 77.3619238,32.3281361 77.0624452,32.3281361 C76.7629665,32.3281361 76.5084103,32.2233189 76.2987751,32.0136838 C76.08914,31.8040486 75.9843227,31.5494924 75.9843227,31.2500137 C75.9843227,30.950535 76.08914,30.6959788 76.2987751,30.4863437 C76.5084103,30.2767085 76.7629665,30.1718913 77.0624452,30.1718913 C77.3619238,30.1718913 77.6164801,30.2767085 77.8261152,30.4863437 C78.0357504,30.6959788 78.1405676,30.950535 78.1405676,31.2500137 Z M58.0156156,31.2500137 C58.0156156,31.5494924 57.9107983,31.8040486 57.7011632,32.0136838 C57.4915281,32.2233189 57.2369718,32.3281361 56.9374931,32.3281361 C56.6380145,32.3281361 56.3834582,32.2233189 56.1738231,32.0136838 C55.9641879,31.8040486 55.8593707,31.5494924 55.8593707,31.2500137 C55.8593707,30.950535 55.9641879,30.6959788 56.1738231,30.4863437 C56.3834582,30.2767085 56.6380145,30.1718913 56.9374931,30.1718913 C57.2369718,30.1718913 57.4915281,30.2767085 57.7011632,30.4863437 C57.9107983,30.6959788 58.0156156,30.950535 58.0156156,31.2500137 Z M59.9023298,23.074252 C60.2018085,23.074252 60.4563647,23.1790692 60.6659999,23.3887043 C60.875635,23.5983395 60.9804523,23.8528957 60.9804523,24.1523744 C60.9804523,24.4518531 60.875635,24.7064093 60.6659999,24.9160444 C60.4563647,25.1256796 60.2018085,25.2304968 59.9023298,25.2304968 C59.6028511,25.2304968 59.3482949,25.1256796 59.1386598,24.9160444 C58.9290246,24.7064093 58.8242074,24.4518531 58.8242074,24.1523744 C58.8242074,23.8528957 58.9290246,23.5983395 59.1386598,23.3887043 C59.3482949,23.1790692 59.6028511,23.074252 59.9023298,23.074252 Z M74.0976085,23.074252 C74.3970872,23.074252 74.6516434,23.1790692 74.8612785,23.3887043 C75.0709137,23.5983395 75.1757309,23.8528957 75.1757309,24.1523744 C75.1757309,24.4518531 75.0709137,24.7064093 74.8612785,24.9160444 C74.6516434,25.1256796 74.3970872,25.2304968 74.0976085,25.2304968 C73.7981298,25.2304968 73.5435736,25.1256796 73.3339384,24.9160444 C73.1243033,24.7064093 73.0194861,24.4518531 73.0194861,24.1523744 C73.0194861,23.8528957 73.1243033,23.5983395 73.3339384,23.3887043 C73.5435736,23.1790692 73.7981298,23.074252 74.0976085,23.074252 Z M70.908163,23.9277655 L68.6171528,30.3066566 C69.006475,30.5761872 69.3134402,30.9205876 69.538049,31.3398572 C69.7626579,31.7591269 69.8749623,32.2083445 69.8749623,32.6875103 C69.8749623,33.4961021 69.5979445,34.1774158 69.0439096,34.7314507 C68.4898747,35.2854856 67.808561,35.5625034 66.9999692,35.5625034 C66.1913773,35.5625034 65.5100636,35.2854856 64.9560287,34.7314507 C64.4019938,34.1774158 64.124976,33.4886149 64.124976,32.6650494 C64.124976,31.8414839 64.4394284,31.1451965 65.0683331,30.5761872 C65.6972379,30.0071779 66.4309599,29.7526217 67.2694998,29.8125171 L69.5605099,23.4785479 C69.6204054,23.2689127 69.740197,23.1266609 69.9198841,23.0517911 C70.0995711,22.9769212 70.2867454,22.9694347 70.4814062,23.0293302 C70.6760669,23.0892256 70.8108322,23.2090173 70.8857021,23.3887043 C70.9605719,23.5683914 70.9680584,23.7480785 70.908163,23.9277655 Z M68.4374657,32.6875103 C68.4374657,32.2981881 68.2952132,31.9612748 68.0107089,31.6767705 C67.7262046,31.3922662 67.3892914,31.2500137 66.9999692,31.2500137 C66.6106469,31.2500137 66.2737337,31.3922662 65.9892294,31.6767705 C65.7047251,31.9612748 65.5624726,32.2981881 65.5624726,32.6875103 C65.5624726,33.0768325 65.7047251,33.4137458 65.9892294,33.6982501 C66.2737337,33.9827544 66.6106469,34.1250069 66.9999692,34.1250069 C67.3892914,34.1250069 67.7262046,33.9827544 68.0107089,33.6982501 C68.2952132,33.4137458 68.4374657,33.0768325 68.4374657,32.6875103 Z M79.9374383,31.2500137 C79.9374383,33.4062586 79.4432989,35.4127644 78.45502,37.2695306 C78.2753329,37.6289048 78.0132895,37.9134091 77.668889,38.1230442 C77.3244886,38.3326793 76.9426536,38.4374966 76.5233839,38.4374966 L57.4765544,38.4374966 C57.0572848,38.4374966 56.6754497,38.3326793 56.3310493,38.1230442 C55.9866488,37.9134091 55.7246054,37.6289048 55.5449183,37.2695306 C54.5566394,35.4127644 54.0625,33.4062586 54.0625,31.2500137 C54.0625,28.9140818 54.646483,26.7428632 55.8144489,24.7363574 C56.9524668,22.7597996 58.509755,21.2025114 60.4863128,20.0644935 C62.4928187,18.8965275 64.6640372,18.3125446 66.9999692,18.3125446 C69.3359011,18.3125446 71.5071196,18.8965275 73.5136255,20.0644935 C75.4901833,21.2025114 77.0474715,22.7597996 78.1854894,24.7363574 C79.3534553,26.7428632 79.9374383,28.9140818 79.9374383,31.2500137 Z M78.4999417,31.2500137 C78.4999417,29.1536643 77.9833414,27.2295155 76.9501407,25.4775665 C75.9169401,23.7256176 74.5243653,22.3330428 72.7724163,21.2998421 C71.0204674,20.2666415 69.0963186,19.7500411 66.9999692,19.7500411 C64.9036198,19.7500411 62.9794709,20.2666415 61.227522,21.2998421 C59.475573,22.3330428 58.0829982,23.7256176 57.0497976,25.4775665 C56.0165969,27.2295155 55.4999966,29.1536643 55.4999966,31.2500137 C55.4999966,33.166676 55.9492143,34.9485724 56.8476496,36.5957041 C56.9674412,36.8652347 57.1770757,37 57.4765544,37 L76.5233839,37 C76.8228626,37 77.0324971,36.8652347 77.1522887,36.5957041 C78.0507241,34.9485724 78.4999417,33.166676 78.4999417,31.2500137 Z" id="ï½"></path>
                </g>
            </g>
        </g>
    </g>
</svg>
