<?xml version="1.0" encoding="UTF-8"?>
<svg width="30px" height="31px" viewBox="0 0 30 31" version="1.1" xmlns="http://www.w3.org/2000/svg" xmlns:xlink="http://www.w3.org/1999/xlink">
    <!-- Generator: Sketch 53.2 (72643) - https://sketchapp.com -->
    <title></title>
    <desc>Created with Sketch.</desc>
    <g id="Page-1" stroke="none" stroke-width="1" fill="none" fill-rule="evenodd">
        <g id="Desktop-HD" transform="translate(-552.000000, -102.000000)" fill="#53C676" fill-rule="nonzero">
            <g id="slide-indicators" transform="translate(129.000000, 80.000000)">
                <path d="M438.656213,51.8593706 C438.47913,51.9921828 438.279912,52.0585888 438.058558,52.0585888 C437.837205,52.0585888 437.660122,51.9921828 437.52731,51.8593706 L423.515624,37.7812791 C423.338541,37.6484669 423.25,37.4713837 423.25,37.2500304 C423.25,37.0286771 423.338541,36.8515938 423.515624,36.7187817 L437.52731,22.6406902 C437.660122,22.507878 437.837205,22.441472 438.058558,22.441472 C438.279912,22.441472 438.47913,22.507878 438.656213,22.6406902 L439.121056,23.171939 C439.253868,23.3047511 439.320274,23.4818344 439.320274,23.7031877 C439.320274,23.924541 439.253868,24.1237593 439.121056,24.3008425 L427.234366,36.1211268 L452.203056,36.1211268 C452.424409,36.1211268 452.612561,36.198601 452.767508,36.3535482 C452.922455,36.5084954 452.999929,36.6966466 452.999929,36.9179999 L452.999929,37.5820609 C452.999929,37.8034142 452.922455,37.9915654 452.767508,38.1465126 C452.612561,38.3014598 452.424409,38.378934 452.203056,38.378934 L427.234366,38.378934 L439.121056,50.1992183 C439.253868,50.3763015 439.320274,50.5755198 439.320274,50.7968731 C439.320274,51.0182264 439.253868,51.1953097 439.121056,51.3281218 L438.656213,51.8593706 Z" id=""></path>
            </g>
        </g>
    </g>
</svg>