<svg width="28px" height="11px" viewBox="0 0 28 11" version="1.1" xmlns="http://www.w3.org/2000/svg" xmlns:xlink="http://www.w3.org/1999/xlink">
    <defs>
        <path d="M21.8749478,9.85159862 L22.2577594,9.46878703 C22.4035927,9.32295377 22.55854,9.25003755 22.7226021,9.25003755 C22.8866642,9.25003755 23.0416115,9.32295377 23.1874447,9.46878703 L27.7811838,14.0625261 C27.927017,14.1719008 27.9999332,14.3177341 27.9999332,14.500025 C27.9999332,14.682316 27.927017,14.8281493 27.7811838,14.937524 L23.1874447,19.531263 C23.0416115,19.6770963 22.8866642,19.7500125 22.7226021,19.7500125 C22.55854,19.7500125 22.4035927,19.6770963 22.2577594,19.531263 L21.8749478,19.1484515 C21.7291146,19.0390767 21.6561984,18.8932434 21.6561984,18.7109525 C21.6561984,18.5286615 21.7291146,18.3645994 21.8749478,18.2187662 L24.7186911,15.4297103 L3.28124218,15.4297103 L6.1249854,18.2187662 C6.27081866,18.3645994 6.34373488,18.5286615 6.34373488,18.7109525 C6.34373488,18.8932434 6.27081866,19.0390767 6.1249854,19.1484515 L5.74217381,19.531263 C5.59634055,19.6770963 5.44139328,19.7500125 5.27733117,19.7500125 C5.11326906,19.7500125 4.95832179,19.6770963 4.81248853,19.531263 L0.218749478,14.937524 C0.0729162147,14.8281493 0,14.682316 0,14.500025 C0,14.3177341 0.0729162147,14.1719008 0.218749478,14.0625261 L4.81248853,9.46878703 C4.95832179,9.32295377 5.11326906,9.25003755 5.27733117,9.25003755 C5.44139328,9.25003755 5.59634055,9.32295377 5.74217381,9.46878703 L6.1249854,9.85159862 C6.27081866,9.96097336 6.34373488,10.1068066 6.34373488,10.2890976 C6.34373488,10.4713885 6.27081866,10.6354506 6.1249854,10.7812839 L3.28124218,13.5703398 L24.7186911,13.5703398 L21.8749478,10.7812839 C21.7291146,10.6354506 21.6561984,10.4713885 21.6561984,10.2890976 C21.6561984,10.1068066 21.7291146,9.96097336 21.8749478,9.85159862 Z" id="path-1"></path>
    </defs>
    <g id="Page-1" stroke="none" stroke-width="1" fill="none" fill-rule="evenodd">
        <g id="icon-duble-arrow" transform="translate(0.000000, -9.000000)" fill-rule="nonzero">
            <g id="arrow">
                <use fill="#000000" xlink:href="#path-1"></use>
                <use fill="#149DD9" xlink:href="#path-1"></use>
            </g>
        </g>
    </g>
</svg>
