<?xml version="1.0" encoding="UTF-8"?>
<svg width="30px" height="31px" viewBox="0 0 30 31" version="1.1" xmlns="http://www.w3.org/2000/svg" xmlns:xlink="http://www.w3.org/1999/xlink">
    <!-- Generator: Sketch 53.2 (72643) - https://sketchapp.com -->
    <title></title>
    <desc>Created with Sketch.</desc>
    <g id="Page-1" stroke="none" stroke-width="1" fill="none" fill-rule="evenodd">
        <g id="Desktop-HD" transform="translate(-1000.000000, -102.000000)" fill="#53C676" fill-rule="nonzero">
            <g id="slide-indicators" transform="translate(129.000000, 80.000000)">
                <path d="M885.593716,22.6406902 C885.770799,22.507878 885.970017,22.441472 886.191371,22.441472 C886.412724,22.441472 886.589807,22.507878 886.722619,22.6406902 L900.734305,36.7187817 C900.911388,36.8515938 900.999929,37.0286771 900.999929,37.2500304 C900.999929,37.4713837 900.911388,37.6484669 900.734305,37.7812791 L886.722619,51.8593706 C886.589807,51.9921828 886.412724,52.0585888 886.191371,52.0585888 C885.970017,52.0585888 885.770799,51.9921828 885.593716,51.8593706 L885.128873,51.3281218 C884.996061,51.1953097 884.929655,51.0182264 884.929655,50.7968731 C884.929655,50.5755198 884.996061,50.3763015 885.128873,50.1992183 L897.015564,38.378934 L872.046873,38.378934 C871.82552,38.378934 871.637369,38.3014598 871.482421,38.1465126 C871.327474,37.9915654 871.25,37.8034142 871.25,37.5820609 L871.25,36.9179999 C871.25,36.6966466 871.327474,36.5084954 871.482421,36.3535482 C871.637369,36.198601 871.82552,36.1211268 872.046873,36.1211268 L897.015564,36.1211268 L885.128873,24.3008425 C884.996061,24.1237593 884.929655,23.924541 884.929655,23.7031877 C884.929655,23.4818344 884.996061,23.3047511 885.128873,23.171939 L885.593716,22.6406902 Z" id=""></path>
            </g>
        </g>
    </g>
</svg>