<?xml version="1.0" encoding="UTF-8"?>
<svg width="31px" height="31px" viewBox="0 0 31 31" version="1.1" xmlns="http://www.w3.org/2000/svg" xmlns:xlink="http://www.w3.org/1999/xlink">
    <!-- Generator: Sketch 53.2 (72643) - https://sketchapp.com -->
    <title>Fill 1</title>
    <desc>Created with Sketch.</desc>
    <defs>
        <filter x="-15.0%" y="-1.3%" width="130.0%" height="102.5%" filterUnits="objectBoundingBox" id="filter-1">
            <feOffset dx="0" dy="2" in="SourceAlpha" result="shadowOffsetOuter1"></feOffset>
            <feGaussianBlur stdDeviation="2" in="shadowOffsetOuter1" result="shadowBlurOuter1"></feGaussianBlur>
            <feColorMatrix values="0 0 0 0 0   0 0 0 0 0   0 0 0 0 0  0 0 0 0.5 0" type="matrix" in="shadowBlurOuter1" result="shadowMatrixOuter1"></feColorMatrix>
            <feMerge>
                <feMergeNode in="shadowMatrixOuter1"></feMergeNode>
                <feMergeNode in="SourceGraphic"></feMergeNode>
            </feMerge>
        </filter>
    </defs>
    <g id="Page-1" stroke="none" stroke-width="1" fill="none" fill-rule="evenodd">
        <g id="Desktop-HD-Copy" transform="translate(-50.000000, -354.000000)" fill="#FFFFFF">
            <g id="Sidebar" filter="url(#filter-1)" transform="translate(0.000000, 79.000000)">
                <g id="btn-chanels" transform="translate(0.000000, 260.000000)">
                    <path d="M74.4903864,17 C73.1082955,17 71.9807727,18.1249091 71.9807727,19.5096136 C71.9807727,19.9424318 72.0910682,20.3485909 72.285,20.7061364 L68.1747955,24.8163409 C67.6092045,24.3730682 66.8988182,24.1101364 66.12675,24.1101364 C65.3552045,24.1101364 64.6463864,24.3730682 64.0787045,24.81425 L60.87125,21.6083636 C61.0202273,21.3595455 61.1101364,21.0736136 61.1101364,20.7631136 C61.1101364,19.8405 60.3584545,19.0909091 59.4353182,19.0909091 C58.5147955,19.0909091 57.7631136,19.8405 57.7631136,20.7631136 C57.7631136,21.68625 58.5147955,22.4353182 59.4353182,22.4353182 C59.7458182,22.4353182 60.03175,22.3459318 60.2810909,22.1985227 L63.4885455,25.4065 C63.0478864,25.9741818 62.7823409,26.6824773 62.7823409,27.4545455 C62.7823409,28.2266136 63.0478864,28.9349091 63.4885455,29.5025909 L58.1922727,34.7993864 C57.7469091,34.3947955 57.15675,34.1459773 56.5096136,34.1459773 C55.1249091,34.1459773 54,35.2708864 54,36.6555909 C54,38.0376818 55.1249091,39.1625909 56.5096136,39.1625909 C57.8917045,39.1625909 59.0192273,38.0376818 59.0192273,36.6555909 C59.0192273,36.22225 58.9089318,35.814 58.715,35.4585455 L64.0787045,30.09275 C64.5423636,30.4539545 65.0995909,30.6949318 65.7101364,30.7707273 L65.7101364,35.0199773 C64.5240682,35.2196591 63.6192273,36.2489091 63.6192273,37.4903864 C63.6192273,38.8750909 64.7446591,40 66.12675,40 C67.5114545,40 68.6363636,38.8750909 68.6363636,37.4903864 C68.6363636,36.251 67.7299545,35.2196591 66.5454545,35.0199773 L66.5454545,30.7707273 C67.156,30.6949318 67.7132273,30.4539545 68.1768864,30.09275 L71.3827727,33.3007273 C71.2358864,33.5495455 71.1459773,33.8354773 71.1459773,34.1459773 C71.1459773,35.0685909 71.8950455,35.8181818 72.8181818,35.8181818 C73.7413182,35.8181818 74.4903864,35.0685909 74.4903864,34.1459773 C74.4903864,33.2228409 73.7413182,32.4737727 72.8181818,32.4737727 C72.5076818,32.4737727 72.22175,32.5631591 71.9750227,32.7105682 L68.7670455,29.5025909 C69.2082273,28.9349091 69.4737727,28.2266136 69.4737727,27.4545455 C69.4737727,26.6824773 69.2082273,25.9741818 68.7670455,25.4065 L72.8077273,21.3658182 C73.2530909,21.7698864 73.84325,22.0192273 74.4903864,22.0192273 C75.8750909,22.0192273 77,20.8917045 77,19.5096136 C77,18.1249091 75.8750909,17 74.4903864,17 Z M58.6005227,20.7631136 C58.6005227,20.3015455 58.9763636,19.9283182 59.4353182,19.9283182 C59.8968864,19.9283182 60.2727273,20.3015455 60.2727273,20.7631136 C60.2727273,21.2246818 59.8968864,21.6005227 59.4353182,21.6005227 C58.9763636,21.6005227 58.6005227,21.2246818 58.6005227,20.7631136 Z M56.5096136,38.3277955 C55.5864773,38.3277955 54.8374091,37.5761136 54.8374091,36.6555909 C54.8374091,35.7324545 55.5864773,34.9807727 56.5096136,34.9807727 C57.4322273,34.9807727 58.1818182,35.7324545 58.1818182,36.6555909 C58.1818182,37.5761136 57.4322273,38.3277955 56.5096136,38.3277955 Z M67.7989545,37.4903864 C67.7989545,38.4135227 67.0498864,39.1625909 66.12675,39.1625909 C65.2041364,39.1625909 64.4545455,38.4135227 64.4545455,37.4903864 C64.4545455,36.5677727 65.2041364,35.8181818 66.12675,35.8181818 C67.0498864,35.8181818 67.7989545,36.5677727 67.7989545,37.4903864 Z M66.12675,29.9641591 C64.7446591,29.9641591 63.6171364,28.8387273 63.6171364,27.4545455 C63.6171364,26.0703636 64.7446591,24.9449318 66.12675,24.9449318 C67.5114545,24.9449318 68.6363636,26.0703636 68.6363636,27.4545455 C68.6363636,28.8387273 67.5114545,29.9641591 66.12675,29.9641591 Z M73.6555909,34.1459773 C73.6555909,34.6075455 73.27975,34.9807727 72.8181818,34.9807727 C72.3566136,34.9807727 71.9807727,34.6075455 71.9807727,34.1459773 C71.9807727,33.6844091 72.3566136,33.3085682 72.8181818,33.3085682 C73.27975,33.3085682 73.6555909,33.6844091 73.6555909,34.1459773 Z M74.4903864,21.1818182 C73.5677727,21.1818182 72.8181818,20.4322273 72.8181818,19.5096136 C72.8181818,18.5864773 73.5677727,17.8374091 74.4903864,17.8374091 C75.4135227,17.8374091 76.1625909,18.5864773 76.1625909,19.5096136 C76.1625909,20.4322273 75.4135227,21.1818182 74.4903864,21.1818182 Z" id="Fill-1"></path>
                </g>
            </g>
        </g>
    </g>
</svg>