<?xml version="1.0" encoding="UTF-8"?>
<svg width="21px" height="17px" viewBox="0 0 21 17" version="1.1" xmlns="http://www.w3.org/2000/svg" xmlns:xlink="http://www.w3.org/1999/xlink">
    <!-- Generator: Sketch 53.2 (72643) - https://sketchapp.com -->
    <title></title>
    <desc>Created with Sketch.</desc>
    <g id="Page-1" stroke="none" stroke-width="1" fill="none" fill-rule="evenodd">
        <g id="Artboard" fill="#FFFFFF" fill-rule="nonzero">
            <path d="M11.7276808,2.68745545 C11.7276808,2.96523344 11.6304588,3.20134412 11.4360141,3.39578878 C11.2415695,3.59023344 11.0054588,3.68745545 10.7276808,3.68745545 C10.4499028,3.68745545 10.2137921,3.59023344 10.0193474,3.39578878 C9.82490278,3.20134412 9.72768077,2.96523344 9.72768077,2.68745545 C9.72768077,2.40967746 9.82490278,2.17356677 10.0193474,1.97912211 C10.2137921,1.78467746 10.4499028,1.68745545 10.7276808,1.68745545 C11.0054588,1.68745545 11.2415695,1.78467746 11.4360141,1.97912211 C11.6304588,2.17356677 11.7276808,2.40967746 11.7276808,2.68745545 Z M19.7276808,10.6874554 C19.7276808,10.9652334 19.6304588,11.2013441 19.4360141,11.3957888 C19.2415695,11.5902334 19.0054588,11.6874554 18.7276808,11.6874554 C18.4499028,11.6874554 18.2137921,11.5902334 18.0193474,11.3957888 C17.8249028,11.2013441 17.7276808,10.9652334 17.7276808,10.6874554 C17.7276808,10.4096775 17.8249028,10.1735668 18.0193474,9.97912211 C18.2137921,9.78467746 18.4499028,9.68745545 18.7276808,9.68745545 C19.0054588,9.68745545 19.2415695,9.78467746 19.4360141,9.97912211 C19.6304588,10.1735668 19.7276808,10.4096775 19.7276808,10.6874554 Z M3.72768077,10.6874554 C3.72768077,10.9652334 3.63045876,11.2013441 3.43601411,11.3957888 C3.24156945,11.5902334 3.00545876,11.6874554 2.72768077,11.6874554 C2.44990278,11.6874554 2.2137921,11.5902334 2.01934744,11.3957888 C1.82490278,11.2013441 1.72768077,10.9652334 1.72768077,10.6874554 C1.72768077,10.4096775 1.82490278,10.1735668 2.01934744,9.97912211 C2.2137921,9.78467746 2.44990278,9.68745545 2.72768077,9.68745545 C3.00545876,9.68745545 3.24156945,9.78467746 3.43601411,9.97912211 C3.63045876,10.1735668 3.72768077,10.4096775 3.72768077,10.6874554 Z M4.72768077,3.68745545 C5.00545876,3.68745545 5.24156945,3.78467746 5.43601411,3.97912211 C5.63045876,4.17356677 5.72768077,4.40967746 5.72768077,4.68745545 C5.72768077,4.96523344 5.63045876,5.20134412 5.43601411,5.39578878 C5.24156945,5.59023344 5.00545876,5.68745545 4.72768077,5.68745545 C4.44990278,5.68745545 4.2137921,5.59023344 4.01934744,5.39578878 C3.82490278,5.20134412 3.72768077,4.96523344 3.72768077,4.68745545 C3.72768077,4.40967746 3.82490278,4.17356677 4.01934744,3.97912211 C4.2137921,3.78467746 4.44990278,3.68745545 4.72768077,3.68745545 Z M16.7276808,3.68745545 C17.0054588,3.68745545 17.2415695,3.78467746 17.4360141,3.97912211 C17.6304588,4.17356677 17.7276808,4.40967746 17.7276808,4.68745545 C17.7276808,4.96523344 17.6304588,5.20134412 17.4360141,5.39578878 C17.2415695,5.59023344 17.0054588,5.68745545 16.7276808,5.68745545 C16.4499028,5.68745545 16.2137921,5.59023344 16.0193474,5.39578878 C15.8249028,5.20134412 15.7276808,4.96523344 15.7276808,4.68745545 C15.7276808,4.40967746 15.8249028,4.17356677 16.0193474,3.97912211 C16.2137921,3.78467746 16.4499028,3.68745545 16.7276808,3.68745545 Z M13.6925674,4.50841613 L11.6779368,10.0892022 C12.0202925,10.32501 12.2902265,10.6263203 12.4877393,10.9931323 C12.6852521,11.3599443 12.7840085,11.7529574 12.7840085,12.1721716 C12.7840085,12.8795952 12.5404092,13.4756653 12.0532111,13.9603812 C11.5660131,14.4450972 10.9668907,14.6874554 10.2558446,14.6874554 C9.54479856,14.6874554 8.94567619,14.4450972 8.45847814,13.9603812 C7.9712801,13.4756653 7.72768077,12.8730448 7.72768077,12.1525209 C7.72768077,11.4319971 8.0041987,10.8228268 8.55723454,10.32501 C9.11027039,9.82719323 9.75547868,9.60448621 10.49286,9.65688775 L12.5074906,4.11540303 C12.5601605,3.93199671 12.6655008,3.80754297 12.8235111,3.74204058 C12.9815213,3.6765382 13.1461155,3.66998838 13.3172931,3.72238993 C13.4884706,3.77479147 13.6069783,3.87959517 13.6728161,4.03680041 C13.7386539,4.19400565 13.7452373,4.35121089 13.6925674,4.50841613 Z M11.7276808,11.6874554 C11.7276808,11.416622 11.6287223,11.182247 11.4308058,10.9843304 C11.2328893,10.7864139 10.9985143,10.6874554 10.7276808,10.6874554 C10.4568473,10.6874554 10.2224723,10.7864139 10.0245558,10.9843304 C9.82663927,11.182247 9.72768077,11.416622 9.72768077,11.6874554 C9.72768077,11.9582889 9.82663927,12.1926639 10.0245558,12.3905804 C10.2224723,12.588497 10.4568473,12.6874554 10.7276808,12.6874554 C10.9985143,12.6874554 11.2328893,12.588497 11.4308058,12.3905804 C11.6287223,12.1926639 11.7276808,11.9582889 11.7276808,11.6874554 Z M20.7276808,10.6160269 C20.7276808,12.4374554 20.3266391,14.1323961 19.5245558,15.7008483 C19.3787224,16.0044197 19.166049,16.2447469 18.8865349,16.4218304 C18.6070209,16.598914 18.297125,16.6874554 17.9568474,16.6874554 L2.49851411,16.6874554 C2.15823652,16.6874554 1.84834068,16.598914 1.56882661,16.4218304 C1.28931253,16.2447469 1.07663911,16.0044197 0.930805775,15.7008483 C0.128722441,14.1323961 -0.272319225,12.4374554 -0.272319225,10.6160269 C-0.272319225,8.64281259 0.201639108,6.8087354 1.14955577,5.11379473 C2.0731667,3.44415187 3.33705577,2.12867549 4.94122244,1.16736616 C6.56969485,0.180759017 8.33184744,-0.312544554 10.2276808,-0.312544554 C12.1235141,-0.312544554 13.8856667,0.180759017 15.5141391,1.16736616 C17.1183058,2.12867549 18.3821948,3.44415187 19.3058058,5.11379473 C20.2537224,6.8087354 20.7276808,8.64281259 20.7276808,10.6160269 Z M19.7276808,10.6874554 C19.7276808,8.86453858 19.300923,7.1913617 18.4474073,5.6679242 C17.5938917,4.1444867 16.4435011,2.9335492 14.9962355,2.0351117 C13.5489698,1.1366742 11.9594518,0.687455446 10.2276808,0.687455446 C8.49590975,0.687455446 6.90639171,1.1366742 5.45912609,2.0351117 C4.01186046,2.9335492 2.86146984,4.1444867 2.00795421,5.6679242 C1.15443859,7.1913617 0.727680775,8.86453858 0.727680775,10.6874554 C0.727680775,12.3541223 1.09877452,13.9036011 1.84096202,15.3358929 C1.93992055,15.5702679 2.11309725,15.6874554 2.36049327,15.6874554 L18.0948683,15.6874554 C18.3422643,15.6874554 18.515441,15.5702679 18.6143995,15.3358929 C19.356587,13.9036011 19.7276808,12.3541223 19.7276808,10.6874554 Z" id=""></path>
        </g>
    </g>
</svg>