<?xml version="1.0" encoding="UTF-8"?>
<svg width="28px" height="29px" viewBox="0 0 28 29" version="1.1" xmlns="http://www.w3.org/2000/svg" xmlns:xlink="http://www.w3.org/1999/xlink">
    <!-- Generator: Sketch 53.2 (72643) - https://sketchapp.com -->
    <title></title>
    <desc>Created with Sketch.</desc>
    <g id="Page-1" stroke="none" stroke-width="1" fill="none" fill-rule="evenodd">
        <g id="Desktop-HD-Copy" transform="translate(-1316.000000, -30.000000)" fill="#172B36" fill-rule="nonzero">
            <g id="Header">
                <path d="M1343.83587,56.8593706 C1343.94525,56.9687453 1343.99993,57.1145786 1343.99993,57.2968695 C1343.99993,57.4791605 1343.94525,57.6432226 1343.83587,57.7890559 L1343.289,58.2812422 C1343.14316,58.4270754 1342.9791,58.4999917 1342.79681,58.4999917 C1342.61452,58.4999917 1342.46869,58.4270754 1342.35931,58.2812422 L1335.30464,51.2265715 C1335.15881,51.1171968 1335.08589,50.9713635 1335.08589,50.7890725 L1335.08589,50.2421988 C1334.06506,51.190113 1332.88928,51.9283925 1331.55856,52.4570373 C1330.22783,52.9856822 1328.8333,53.2500042 1327.37497,53.2500042 C1325.29685,53.2500042 1323.39191,52.739589 1321.66014,51.7187578 C1319.92838,50.6979266 1318.55208,49.3216284 1317.53125,47.5898614 C1316.51042,45.8580944 1316,43.9531513 1316,41.8750313 C1316,39.7969112 1316.51042,37.8919682 1317.53125,36.1602012 C1318.55208,34.4284342 1319.92838,33.0521359 1321.66014,32.0313048 C1323.39191,31.0104736 1325.29685,30.5000584 1327.37497,30.5000584 C1329.45309,30.5000584 1331.35804,31.0104736 1333.0898,32.0313048 C1334.82157,33.0521359 1336.19787,34.4284342 1337.2187,36.1602012 C1338.23953,37.8919682 1338.74995,39.7969112 1338.74995,41.8750313 C1338.74995,43.3333614 1338.48562,44.7278894 1337.95698,46.0586151 C1337.42833,47.3893408 1336.69005,48.5651192 1335.74214,49.5859504 L1336.28901,49.5859504 C1336.47131,49.5859504 1336.63537,49.6588666 1336.7812,49.8046999 L1343.83587,56.8593706 Z M1327.37497,51.5000083 C1329.12497,51.5000083 1330.73825,51.0716242 1332.21481,50.2148552 C1333.69136,49.3580861 1334.85803,48.1914225 1335.7148,46.7148635 C1336.57157,45.2383045 1336.99995,43.6250271 1336.99995,41.8750313 C1336.99995,40.1250355 1336.57157,38.5117581 1335.7148,37.0351991 C1334.85803,35.5586401 1333.69136,34.3919765 1332.21481,33.5352074 C1330.73825,32.6784384 1329.12497,32.2500542 1327.37497,32.2500542 C1325.62498,32.2500542 1324.0117,32.6784384 1322.53514,33.5352074 C1321.05858,34.3919765 1319.89192,35.5586401 1319.03515,37.0351991 C1318.17838,38.5117581 1317.75,40.1250355 1317.75,41.8750313 C1317.75,43.6250271 1318.17838,45.2383045 1319.03515,46.7148635 C1319.89192,48.1914225 1321.05858,49.3580861 1322.53514,50.2148552 C1324.0117,51.0716242 1325.62498,51.5000083 1327.37497,51.5000083 Z" id=""></path>
            </g>
        </g>
    </g>
</svg>