<?xml version="1.0" encoding="UTF-8"?>
<svg width="35px" height="19px" viewBox="0 0 35 19" version="1.1" xmlns="http://www.w3.org/2000/svg" xmlns:xlink="http://www.w3.org/1999/xlink">
    <!-- Generator: Sketch 53.2 (72643) - https://sketchapp.com -->
    <title></title>
    <desc>Created with Sketch.</desc>
    <g id="Page-1" stroke="none" stroke-width="1" fill="none" fill-rule="evenodd">
        <g id="Desktop-HD-Copy" transform="translate(-1385.000000, -35.000000)" fill="#53C676" fill-rule="nonzero">
            <g id="Header">
                <path d="M1418.68742,35.7500459 C1419.052,35.7500459 1419.3619,35.8776495 1419.6171,36.1328575 C1419.87231,36.3880655 1419.99992,36.69796 1419.99992,37.0625428 L1419.99992,51.9375073 C1419.99992,52.30209 1419.87231,52.6119846 1419.6171,52.8671926 C1419.3619,53.1224006 1419.052,53.2500042 1418.68742,53.2500042 L1386.3125,53.2500042 C1385.94791,53.2500042 1385.63802,53.1224006 1385.38281,52.8671926 C1385.1276,52.6119846 1385,52.30209 1385,51.9375073 L1385,37.0625428 C1385,36.69796 1385.1276,36.3880655 1385.38281,36.1328575 C1385.63802,35.8776495 1385.94791,35.7500459 1386.3125,35.7500459 L1418.68742,35.7500459 Z M1418.24992,48.0000167 L1418.24992,41.0000334 C1417.26555,41.0000334 1416.43612,40.6627943 1415.76165,39.988317 C1415.08717,39.3138398 1414.74993,38.4844144 1414.74993,37.5000417 L1390.24999,37.5000417 C1390.24999,38.4844144 1389.91275,39.3138398 1389.23827,39.988317 C1388.56379,40.6627943 1387.73437,41.0000334 1386.75,41.0000334 L1386.75,48.0000167 C1387.73437,48.0000167 1388.56379,48.3372557 1389.23827,49.011733 C1389.91275,49.6862103 1390.24999,50.5156357 1390.24999,51.5000083 L1414.74993,51.5000083 C1414.74993,50.5156357 1415.08717,49.6862103 1415.76165,49.011733 C1416.43612,48.3372557 1417.26555,48.0000167 1418.24992,48.0000167 Z M1402.49996,39.2500376 C1403.70308,39.2500376 1404.73303,39.7604527 1405.58979,40.7812839 C1406.44656,41.8021151 1406.87495,43.0416949 1406.87495,44.500025 C1406.87495,45.9583552 1406.44656,47.197935 1405.58979,48.2187662 C1404.73303,49.2395973 1403.70308,49.7500125 1402.49996,49.7500125 C1401.29684,49.7500125 1400.26689,49.2395973 1399.41012,48.2187662 C1398.55335,47.197935 1398.12497,45.9583552 1398.12497,44.500025 C1398.12497,43.0416949 1398.55335,41.8021151 1399.41012,40.7812839 C1400.26689,39.7604527 1401.29684,39.2500376 1402.49996,39.2500376 Z M1404.96089,47.1797061 L1404.96089,46.7968946 C1404.96089,46.4323118 1404.79683,46.2500209 1404.4687,46.2500209 L1403.48433,46.2500209 L1403.48433,41.5469071 C1403.48433,41.1823243 1403.30204,41.0000334 1402.93746,41.0000334 L1402.39058,41.0000334 C1402.13538,41.0000334 1401.91663,41.0911793 1401.73434,41.2734702 L1400.53121,42.421905 C1400.23955,42.6406545 1400.22132,42.8958625 1400.47653,43.1875282 L1400.74996,43.460965 C1401.00517,43.716173 1401.26038,43.716173 1401.51559,43.460965 L1401.57027,43.4062776 C1401.64319,43.3698191 1401.69788,43.2969029 1401.73434,43.1875282 L1401.84371,43.0781534 L1401.78902,46.2500209 L1400.85934,46.2500209 C1400.49475,46.2500209 1400.31246,46.4323118 1400.31246,46.7968946 L1400.31246,47.1797061 C1400.31246,47.5442889 1400.49475,47.7265798 1400.85934,47.7265798 L1404.4687,47.7265798 C1404.79683,47.7265798 1404.96089,47.5442889 1404.96089,47.1797061 Z" id=""></path>
            </g>
        </g>
    </g>
</svg>