<?xml version="1.0" encoding="UTF-8"?>
<svg width="35px" height="32px" viewBox="0 0 35 32" version="1.1" xmlns="http://www.w3.org/2000/svg" xmlns:xlink="http://www.w3.org/1999/xlink">
    <defs>
        <filter x="-15.0%" y="-1.3%" width="130.0%" height="102.5%" filterUnits="objectBoundingBox" id="filter-1">
            <feOffset dx="0" dy="2" in="SourceAlpha" result="shadowOffsetOuter1"></feOffset>
            <feGaussianBlur stdDeviation="2" in="shadowOffsetOuter1" result="shadowBlurOuter1"></feGaussianBlur>
            <feColorMatrix values="0 0 0 0 0   0 0 0 0 0   0 0 0 0 0  0 0 0 0.5 0" type="matrix" in="shadowBlurOuter1" result="shadowMatrixOuter1"></feColorMatrix>
            <feMerge>
                <feMergeNode in="shadowMatrixOuter1"></feMergeNode>
                <feMergeNode in="SourceGraphic"></feMergeNode>
            </feMerge>
        </filter>
    </defs>
    <g id="Page-1" stroke="none" stroke-width="1" fill="none" fill-rule="evenodd">
        <g id="Desktop-HD-Copy" transform="translate(-48.000000, -283.000000)" fill="#FFFFFF">
            <g id="Sidebar" filter="url(#filter-1)" transform="translate(0.000000, 79.000000)">
                <g id="btn-tokens" transform="translate(0.000000, 190.000000)">
                    <path d="M78.6628394,23.9990741 C78.6172828,23.239612 77.7144841,22.6451538 75.9044422,22.19181 C75.9655548,22.0590291 76,21.920137 76,21.7768004 L76,18.667284 L75.9938887,18.667284 C75.8327739,16.0761129 65.2186393,16 64.0013889,16 C62.7813607,16 52.1672261,16.0761129 52.0066668,18.667284 L52,18.667284 L52,21.7768004 C52.0022223,22.6212644 53.0916919,23.2829464 54.7128406,23.7757355 C54.6911734,23.8496261 54.6778398,23.9235167 54.6733952,23.9990741 L54.667284,23.9990741 L54.667284,27.1047015 C52.9200213,27.5563786 52.0477789,28.1419477 52.0044445,28.8886317 L52,28.8886317 L52,32.0009259 C52.0022223,32.5887173 52.531679,33.0859511 53.4000324,33.5026274 C53.3672539,33.5915183 53.3455867,33.6848538 53.3389199,33.7781893 L53.3322531,33.7781893 L53.3322531,36.8904836 C53.3366976,38.3682956 56.6656636,39.2860946 60.3640825,39.7138823 C60.3901942,39.7199935 60.4157504,39.7311049 60.4440844,39.7311049 C60.4529734,39.7311049 60.4596403,39.7266603 60.4679738,39.7244381 C61.1818792,39.8049955 61.906896,39.8677747 62.6230237,39.9133313 C62.638024,39.9155536 62.6513577,39.9222204 62.666358,39.9222204 C62.6752471,39.9222204 62.6819139,39.9177759 62.6902475,39.9177759 C63.599713,39.971666 64.4958448,40 65.333642,40 C66.1714392,40 67.067571,39.971666 67.9770365,39.9177759 C67.98537,39.9177759 67.9920369,39.9222204 68.0009259,39.9222204 C68.0159263,39.9222204 68.0292599,39.9133313 68.0442603,39.9133313 C68.760388,39.8677747 69.4854048,39.8049955 70.1993102,39.7244381 C70.2076437,39.7244381 70.2143105,39.7288826 70.2231996,39.7288826 C70.2515336,39.7288826 70.2770897,39.7177712 70.3032015,39.7138823 C74.0016204,39.2838723 77.3305864,38.3660733 77.3350309,36.8882613 L77.3350309,33.7781893 L77.3261418,33.7781893 C77.2955855,33.2337323 76.8311304,32.7776106 75.9133313,32.3981574 C75.9699993,32.2698211 76,32.1375958 76,31.9987037 L76,29.0925253 C77.5950369,28.6025139 78.6650617,27.9469432 78.667284,27.109146 L78.667284,23.9990741 L78.6628394,23.9990741 Z M75.0627561,32.1442626 L74.9127526,32.2764879 C74.6783027,32.4826038 74.2899604,32.6887196 73.7777263,32.8881687 L73.7777263,30.7703419 C74.307183,30.5858932 74.7566379,30.3819996 75.1127572,30.1581055 L75.1127572,31.9987037 C75.1127572,32.0442603 75.0949791,32.0920392 75.0627561,32.1442626 Z M65.1230816,34.2076437 C65.05808,34.209866 64.9930785,34.209866 64.928077,34.2120882 C64.7691845,34.2165328 64.6064029,34.2165328 64.4458437,34.2187551 L64.4458437,31.9987037 C64.5675131,31.9964814 64.6891826,31.9942591 64.8125188,31.9920369 L64.8825204,31.9898146 C65.3291974,31.9837033 65.7786523,31.9681474 66.2236626,31.9487025 L66.2236626,34.1665316 C66.1281048,34.1731985 66.032547,34.177643 65.9369893,34.1820875 C65.6680942,34.1926433 65.3986435,34.2015324 65.1230816,34.2076437 Z M63.1830366,34.2143105 C62.979143,34.209866 62.7752494,34.205977 62.5752448,34.1993102 L62.4991319,34.1970879 C62.2585708,34.1881988 62.0174541,34.1798653 61.7791153,34.1665316 L61.7791153,31.9487025 C62.22357,31.9703697 62.6708026,31.9837033 63.1180351,31.9920369 C63.1419246,31.9920369 63.165814,31.9920369 63.1897035,31.9920369 C63.3108174,31.9942591 63.4324869,31.9964814 63.5563786,31.9987037 L63.5563786,34.2187551 C63.4697099,34.2187551 63.3824857,34.2187551 63.2980393,34.2165328 C63.2591495,34.2165328 63.2197042,34.2143105 63.1830366,34.2143105 Z M55.1534063,33.2009537 C55.1400727,33.1965092 55.1250723,33.1920646 55.1122943,33.1876201 L55.1122943,31.0414593 C55.5267483,31.1542397 55.9734253,31.2564643 56.4445473,31.3497998 L56.4445473,33.5176277 C56.0367601,33.430959 55.6611959,33.3398458 55.3184101,33.2465103 C55.2639644,33.23151 55.2072965,33.2159541 55.1534063,33.2009537 Z M64.5219565,36.8815945 C64.6458483,36.8838168 64.7669622,36.886039 64.8886317,36.8882613 L64.8886317,39.1083127 C64.2747286,39.1038681 63.6819371,39.0866455 63.1113683,39.0583115 L63.1113683,36.8382601 C63.5563786,36.8599273 64.0030556,36.8727054 64.4525105,36.8815945 C64.4763999,36.8815945 64.4980671,36.8815945 64.5219565,36.8815945 Z M66.2147735,36.8815945 C66.6642283,36.8727054 67.1109053,36.857705 67.5559156,36.8382601 L67.5559156,39.0560893 C66.9853469,39.0844233 66.3925554,39.1038681 65.7786523,39.1083127 L65.7786523,36.886039 C65.9003218,36.886039 66.0214357,36.8838168 66.1453274,36.8815945 C66.1692169,36.8815945 66.190884,36.8815945 66.2147735,36.8815945 Z M69.7781893,36.6799231 L69.7781893,38.8866409 C69.3504016,38.9321975 68.9059469,38.9716429 68.4459362,39.0038658 L68.4459362,36.7860367 C68.8948355,36.7577027 69.3398458,36.7210352 69.7781893,36.6799231 Z M70.6682099,36.5843654 C71.1259983,36.5276974 71.5710086,36.4649182 72.000463,36.3954721 L72.000463,38.578856 C71.5815644,38.652191 71.1365541,38.7199704 70.6682099,38.7827496 L70.6682099,36.5843654 Z M72.8904836,36.2371351 C73.36105,36.1437996 73.8082826,36.041575 74.2227366,35.9310169 L74.2227366,38.0771777 C73.8277275,38.1921804 73.3804949,38.3032941 72.8904836,38.4071854 L72.8904836,36.2371351 Z M57.7768004,36.2371351 L57.7768004,38.4071854 C57.286789,38.3032941 56.8395565,38.1921804 56.4445473,38.0771777 L56.4445473,35.9310169 C56.8590014,36.041575 57.3062339,36.1460219 57.7768004,36.2371351 Z M58.666821,36.3954721 C59.0962754,36.4671404 59.5412857,36.5299197 59.9990741,36.5843654 L59.9990741,38.7827496 C59.5307299,38.7199704 59.0857196,38.652191 58.666821,38.578856 L58.666821,36.3954721 Z M60.8890947,36.6799231 C61.3274381,36.7210352 61.7724484,36.7577027 62.2213477,36.788259 L62.2213477,39.0038658 C61.7613371,38.9716429 61.3168823,38.9321975 60.8890947,38.8866409 L60.8890947,36.6799231 Z M59.7868469,34.0209727 C59.7412903,34.0170837 59.6957337,34.0126392 59.6518438,34.0081946 C59.6196208,34.0037501 59.5868423,34.0015278 59.5568416,33.9976388 L59.5568416,31.7903655 C59.9929628,31.8336999 60.4379731,31.8681451 60.8890947,31.8987014 L60.8890947,34.1143082 C60.5157527,34.0865298 60.1468553,34.0559735 59.7868469,34.0209727 Z M58.666821,31.6948078 L58.666821,33.893192 C58.1979212,33.8304127 57.7529109,33.763189 57.3345679,33.6892984 L57.3345679,31.5059145 C57.7640223,31.5775828 58.2090326,31.640362 58.666821,31.6948078 Z M67.4081344,34.092641 C67.31091,34.0993079 67.2109077,34.1081969 67.1109053,34.1143082 L67.1109053,31.8987014 C67.5625825,31.8681451 68.0070372,31.8336999 68.4459362,31.7903655 L68.4459362,33.9976388 C68.1698187,34.0254173 67.8903678,34.0537512 67.6014723,34.0776407 C67.5364708,34.0820852 67.4714692,34.0887521 67.4081344,34.092641 Z M69.333179,33.893192 L69.333179,31.6948078 C69.7909674,31.640362 70.2359777,31.5775828 70.6682099,31.5059145 L70.6682099,33.6892984 C70.2493113,33.763189 69.804301,33.832635 69.333179,33.893192 Z M71.5554527,31.3475775 C72.028797,31.2564643 72.4738073,31.1520174 72.8904836,31.0414593 L72.8904836,33.1876201 C72.4932522,33.3031783 72.0482419,33.4137364 71.5554527,33.5176277 L71.5554527,31.3475775 Z M65.4792009,29.3186416 C65.1447487,29.3097525 64.8169634,29.2969745 64.4958448,29.2814186 C64.4786222,29.2791963 64.4613996,29.2791963 64.4436214,29.2791963 L64.4436214,27.0591449 C64.890854,27.0808121 65.3380865,27.0941457 65.7847635,27.1024792 C65.808653,27.1024792 65.8325424,27.1024792 65.8547652,27.1047015 C65.9781013,27.1069238 66.0997708,27.1069238 66.2214403,27.109146 L66.2214403,29.3291974 C66.0064353,29.3269752 65.7869858,29.3247529 65.5769809,29.3208639 C65.5442024,29.3186416 65.5114239,29.3186416 65.4792009,29.3186416 Z M55.1122943,22.9662724 L55.1122943,20.8201116 C55.5267483,20.9306697 55.9734253,21.0328943 56.4445473,21.1262298 L56.4445473,23.29628 C56.3901016,23.2829464 56.3339892,23.2723906 56.2795435,23.2612792 C56.0428714,23.2096113 55.812866,23.1551656 55.5917498,23.0962754 C55.4245237,23.0551633 55.2639644,23.0096067 55.1122943,22.9662724 Z M63.1897035,21.7706891 C63.3108174,21.7729114 63.4324869,21.7751337 63.5563786,21.7751337 L63.5563786,23.9951851 C62.9574759,23.9885183 62.3624621,23.9735179 61.7791153,23.9451839 L61.7791153,21.7273548 C62.22357,21.7467997 62.6708026,21.7618 63.1180351,21.7706891 C63.1419246,21.7706891 63.165814,21.7706891 63.1897035,21.7706891 Z M64.8825204,21.7684669 C65.3291974,21.7595778 65.77643,21.7467997 66.2236626,21.7273548 L66.2236626,23.9429616 C66.1475497,23.9474062 66.0736591,23.9512952 65.9975462,23.9557397 C65.9936573,23.9557397 65.9869904,23.9557397 65.9803236,23.957962 C65.6808722,23.9712956 65.3769763,23.9796292 65.0686358,23.986296 C65.0214125,23.9885183 64.9736336,23.9885183 64.9258548,23.9907405 C64.7669622,23.9929628 64.6047362,23.9951851 64.4436214,23.9951851 L64.4436214,21.7751337 C64.5675131,21.7751337 64.6891826,21.7729114 64.8108521,21.7706891 L64.8825204,21.7684669 Z M75.0105327,21.9918054 L74.9977546,21.9895831 L74.834973,22.1156971 C74.6005232,22.2979236 74.2399593,22.4823723 73.7777263,22.6623764 L73.7777263,20.5467719 C74.307183,20.3639899 74.7566379,20.1600963 75.1127572,19.9367578 L75.1127572,21.7751337 C75.1127572,21.8423575 75.0755342,21.9156925 75.0105327,21.9918054 Z M69.333179,23.6673997 L69.333179,21.4712378 C69.7909674,21.4167921 70.2359777,21.3540128 70.6682099,21.2845668 L70.6682099,23.4635061 C70.2448668,23.5368411 69.8020788,23.6062872 69.333179,23.6673997 Z M71.5554527,23.2918355 L71.5554527,21.1262298 C72.028797,21.0328943 72.4738073,20.9306697 72.8904836,20.8201116 L72.8904836,22.9618278 C72.4910299,23.0768305 72.041575,23.1873886 71.5554527,23.2918355 Z M68.4459362,21.5684622 L68.4459362,23.7735133 C68.0159263,23.8168476 67.570916,23.8585152 67.1109053,23.8907382 L67.1109053,21.6773536 C67.5625825,21.6467974 68.0070372,21.6101299 68.4459362,21.5684622 Z M59.5568416,23.7735133 L59.5568416,21.5684622 C59.9929628,21.6101299 60.4379731,21.6467974 60.8890947,21.6773536 L60.8890947,23.8885159 C60.4379731,23.856293 59.9907405,23.8190699 59.5568416,23.7735133 Z M58.666821,21.4712378 L58.666821,23.6673997 C58.57793,23.6562883 58.4868168,23.6479548 58.4001482,23.6346212 C58.3434802,23.6279544 58.2890345,23.6196208 58.2329221,23.6107317 C57.976805,23.5740642 57.7251325,23.5346189 57.4795713,23.4935068 C57.4295701,23.4851733 57.3823468,23.4762842 57.3345679,23.4673951 L57.3345679,21.2845668 C57.7640223,21.3540128 58.2090326,21.4167921 58.666821,21.4712378 Z M63.4458205,29.2186393 C63.384708,29.2119725 63.3263733,29.207528 63.2652608,29.203639 C62.9813653,29.1819718 62.7035811,29.1580824 62.4319081,29.1297484 C62.3735735,29.1253038 62.3146832,29.118637 62.2585708,29.1125258 C62.2452372,29.1125258 62.2346814,29.1103035 62.2213477,29.1080812 L62.2213477,26.9008079 C62.6602468,26.9441422 63.1047015,26.979143 63.5563786,27.0091437 L63.5563786,29.2253061 C63.5191555,29.2230839 63.482488,29.2208616 63.4458205,29.2186393 Z M60.5090859,28.8864094 C60.3335262,28.858631 60.1685224,28.8280747 59.9990741,28.7975185 L59.9990741,26.6185791 C60.4313063,26.6880252 60.8763166,26.75136 61.334105,26.8052501 L61.334105,29.0036343 C61.0607653,28.9691891 60.7957592,28.9297437 60.5396421,28.890854 C60.5290863,28.8886317 60.5201972,28.8864094 60.5090859,28.8864094 Z M59.1118313,26.4602421 L59.1118313,28.6264034 C58.6190421,28.5197343 58.1740318,28.4069539 57.7768004,28.2919512 L57.7768004,26.1519017 C58.1934767,26.2652376 58.638487,26.3669066 59.1118313,26.4602421 Z M56.8895576,25.8807843 L56.8895576,27.9924998 C56.1906526,27.7236047 55.7389754,27.4474872 55.5939721,27.2024815 L55.5634158,27.1524804 C55.5611935,27.13748 55.556749,27.1241464 55.5545267,27.109146 L55.5545267,25.2691035 C55.9106461,25.492442 56.3601009,25.6963356 56.8895576,25.8807843 Z M67.5492488,27.1024792 C67.9964814,27.0941457 68.443714,27.0808121 68.8881687,27.0591449 L68.8881687,29.276974 C68.3048219,29.305308 67.7120304,29.3208639 67.1109053,29.3269752 L67.1109053,27.109146 C67.2347971,27.1069238 67.3564666,27.1069238 67.4775805,27.1047015 L67.5492488,27.1024792 Z M73.291604,28.8086298 C73.0965995,28.8408528 72.9010394,28.8758536 72.699368,28.9058543 C72.5821431,28.9236325 72.4626959,28.9408551 72.345471,28.9580777 C72.2326906,28.9736336 72.1154656,28.9864117 72.000463,29.0014121 L72.000463,26.8052501 C72.4582513,26.75136 72.9032616,26.6880252 73.3349383,26.6185791 L73.3349383,28.7997407 C73.319938,28.801963 73.3071599,28.8064076 73.291604,28.8086298 Z M70.2837566,29.1880831 C70.1165305,29.2014167 69.9454154,29.2097502 69.7781893,29.2230839 L69.7781893,27.0091437 C70.2293109,26.979143 70.6743212,26.9441422 71.1104424,26.9008079 L71.1104424,29.1058589 C70.8526586,29.1341929 70.5965416,29.1597491 70.3293132,29.1836385 C70.3143128,29.1836385 70.2993125,29.1858608 70.2837566,29.1880831 Z M75.3622075,28.3547304 C75.1405357,28.415843 74.9060858,28.4741776 74.6677469,28.5308456 C74.5571888,28.5569573 74.4438529,28.5808468 74.3288502,28.6064029 C74.294405,28.6130697 74.2571819,28.6219588 74.2227366,28.6280701 L74.2227366,26.4602421 C74.6960809,26.3669066 75.1405357,26.2652376 75.557212,26.1519017 L75.557212,28.3008403 C75.4922105,28.3180629 75.427209,28.3352855 75.3622075,28.3547304 Z M77.7733744,24.0296303 C77.7317068,24.331304 77.0483576,24.7329799 75.8288849,25.1102109 C74.2555152,25.5946665 71.7943471,26.0391213 68.6759416,26.1780134 C68.517049,26.1846802 68.3564897,26.191347 68.1959305,26.1974583 C68.0614829,26.2019028 67.9292576,26.2041251 67.7925878,26.2085696 C67.4259126,26.2174587 67.0525707,26.2213477 66.665895,26.2213477 C66.2819973,26.2213477 65.9086553,26.2174587 65.5397579,26.2085696 C65.4053103,26.2041251 65.273085,26.1996805 65.1380819,26.1957916 C64.9753004,26.191347 64.8169634,26.1846802 64.6564041,26.1780134 C61.5402208,26.0391213 59.0790528,25.5946665 57.505683,25.1085442 C56.2945439,24.7352022 55.613417,24.3357485 55.5611935,24.0362971 C55.5634158,24.027408 55.5634158,24.0207412 55.5700826,24.0101854 C55.6000833,24.0168522 55.6328619,24.0229635 55.6634181,24.0318526 C55.8367555,24.0729647 56.0167596,24.11241 56.1973194,24.1512998 C57.0806732,24.3401931 58.0590291,24.4963078 59.1007199,24.615755 C59.1051645,24.615755 59.1073867,24.6179773 59.1118313,24.6179773 L59.1140536,24.6179773 C59.8235144,24.6979791 60.5613093,24.7613139 61.3168823,24.8068705 C61.3229936,24.8068705 61.3274381,24.8107595 61.334105,24.8107595 C61.3363272,24.8107595 61.3385495,24.8085372 61.3424385,24.8085372 C61.8874511,24.8390935 62.438575,24.8629829 62.9963657,24.8763166 C63.3369291,24.8846501 63.6736036,24.8890947 64.0013889,24.8890947 C64.2336165,24.8890947 64.4719554,24.8868724 64.7152943,24.8824278 C67.944258,24.8324267 70.937105,24.4485289 73.0182643,23.8540707 C73.1160444,23.8257367 73.2093798,23.7974027 73.3004931,23.7690687 C73.3566055,23.7518461 73.4154957,23.7368458 73.4699414,23.7196231 C73.6305007,23.6673997 73.7843932,23.612954 73.9338411,23.5585083 C73.9599528,23.5501748 73.9838422,23.5390634 74.0099539,23.5307299 C74.136068,23.482951 74.2571819,23.4329498 74.3727401,23.3829487 C74.4049631,23.3679483 74.4399639,23.3523924 74.4721869,23.3396143 C74.5960786,23.2829464 74.7155258,23.226834 74.8260839,23.1679437 C74.8738628,23.141832 74.9171972,23.1140536 74.964976,23.0879419 C75.0171995,23.0573856 75.0710896,23.0251626 75.1210908,22.9946064 C75.1494248,22.9773837 75.1822033,22.9596055 75.2077594,22.9423829 C77.1978055,23.3723929 77.7233732,23.8451816 77.7733744,24.0296303 Z M64.0013889,16.8900206 C71.3298919,16.8900206 75.0366444,18.0422695 75.1060904,18.7039515 C75.0516447,19.0056251 74.3682956,19.4028565 73.161601,19.7761985 C71.5882312,20.2623209 69.1270631,20.7073312 66.0108799,20.844001 C65.8503206,20.8501123 65.6919836,20.8567791 65.5292021,20.8634459 C65.3941989,20.8678905 65.2619737,20.872335 65.1275261,20.8740017 C64.7586287,20.8828908 64.3852867,20.8895576 64.0013889,20.8895576 C63.6147133,20.8895576 63.2413713,20.8828908 62.8746962,20.8740017 C62.7380263,20.872335 62.6058011,20.8678905 62.4713535,20.8634459 C62.308572,20.8567791 62.150235,20.8501123 61.9913424,20.844001 C58.8729369,20.7073312 56.4117688,20.2623209 54.838399,19.7761985 C53.63226,19.4028565 52.9483553,19.0056251 52.8961319,18.7039515 C52.9655779,18.0422695 56.6723304,16.8900206 64.0013889,16.8900206 Z M52.8900206,21.7768004 L52.8900206,19.9367578 C53.2433621,20.1600963 53.692817,20.3639899 54.2222737,20.5467719 L54.2222737,22.6757101 C53.3583648,22.3523693 52.8900206,22.0268062 52.8900206,21.7768004 Z M55.0428482,27.9274983 C55.0489595,27.9336096 55.0578486,27.9402764 55.0667377,27.9469432 C55.6739739,28.5608463 56.932892,29.0447464 58.5018172,29.4053103 C58.5390403,29.4119771 58.5757078,29.4203107 58.6123753,29.4291997 C58.7273779,29.4553115 58.8446029,29.4814232 58.9640501,29.5053126 C60.4029723,29.8108753 62.1241232,30.032547 63.9969444,30.1431052 C63.9991666,30.1431052 63.9991666,30.1431052 63.9991666,30.1431052 C64.0013889,30.1431052 64.0013889,30.1431052 64.0013889,30.1431052 C64.6047362,30.178106 65.2186393,30.2014398 65.8480983,30.2125512 C66.1258825,30.219218 66.3992222,30.2236626 66.665895,30.2236626 C66.9742355,30.2236626 67.2892428,30.219218 67.6081391,30.2103289 C68.1898192,30.1997731 68.7626102,30.1758837 69.3270678,30.1431052 C69.3287345,30.1431052 69.3309567,30.1431052 69.333179,30.1431052 C69.3376236,30.1431052 69.3398458,30.1408829 69.3442904,30.1408829 C71.2237783,30.0303248 72.9854858,29.8069863 74.4766314,29.4853122 C74.1532906,29.6525383 73.7105026,29.8286534 73.161601,29.9975462 C71.5015625,30.5120026 68.8492789,30.9786801 65.4814232,31.0870159 C65.3814209,31.0892382 65.2814186,31.0936827 65.1797495,31.095905 C65.0708581,31.0981273 64.9603,31.1003495 64.8497419,31.1025718 C64.5697354,31.1064608 64.2897289,31.1109053 64.0013889,31.1109053 C63.6147133,31.1109053 63.2413713,31.1064608 62.8746962,31.0981273 C62.7380263,31.0936827 62.6058011,31.0892382 62.4713535,31.0847936 C62.308572,31.0809047 62.150235,31.0742378 61.9913424,31.067571 C58.8729369,30.9286789 56.4117688,30.4836686 54.838399,29.9975462 C53.6167041,29.6203153 52.9333549,29.2186393 52.8939096,28.9169657 C52.9439107,28.7497396 53.3933656,28.330841 55.0428482,27.9274983 Z M52.8900206,31.9987037 L52.8900206,30.1581055 C53.2433621,30.3819996 53.692817,30.5858932 54.2222737,30.7703419 L54.2222737,32.8881687 L53.9683789,32.7909442 L53.9639344,32.7948332 C53.2650293,32.5064932 52.8900206,32.2220422 52.8900206,31.9987037 Z M54.2222737,36.8882613 L54.2222737,35.0476631 C54.578393,35.2710016 55.0272923,35.4754508 55.5545267,35.6598995 L55.5545267,37.7866154 C54.6911734,37.4632746 54.2222737,37.1377115 54.2222737,36.8882613 Z M75.1127572,37.7866154 L75.1127572,35.6598995 C75.6399917,35.4754508 76.0888909,35.2710016 76.4450103,35.0476631 L76.4450103,36.886039 C76.4450103,37.1377115 75.9761106,37.4632746 75.1127572,37.7866154 Z M76.4383435,33.8126346 C76.3905646,34.1126415 75.7072154,34.5115396 74.493854,34.8871039 C72.9227065,35.3732262 70.4615385,35.8182365 67.3431329,35.9571286 C67.1825737,35.9637955 67.0242367,35.9699067 66.8614551,35.9743513 C66.7292298,35.9787958 66.5947823,35.9832404 66.4597792,35.9876849 C66.0908817,35.9937962 65.7175398,36.000463 65.333642,36.000463 C64.9497442,36.000463 64.57418,35.9937962 64.2075048,35.9854626 C64.0725017,35.9832404 63.9402764,35.9787958 63.8080511,35.9743513 C63.6452696,35.9676844 63.4847103,35.9615732 63.324151,35.9549064 C60.2057455,35.8182365 57.7445774,35.3732262 56.1734299,34.8871039 C54.9972916,34.5248733 54.3178314,34.1381976 54.233385,33.8409685 C54.3656103,33.8865252 54.5022801,33.9320818 54.6433945,33.9754161 C54.6583949,33.9798606 54.6717285,33.9843052 54.6867289,33.9887497 C54.8061761,34.0254173 54.9295123,34.0604181 55.0556263,34.0948633 C55.1034052,34.1081969 55.1511841,34.1231973 55.1989629,34.1343087 C55.2706313,34.1537536 55.3422996,34.1731985 55.4156346,34.1904211 C57.034561,34.6048751 59.1007199,34.9004375 61.3318827,35.0326628 C61.3318827,35.0326628 61.3318827,35.0326628 61.334105,35.0326628 C62.0241209,35.0715526 62.7274705,35.0976643 63.4391537,35.1065534 C63.6280469,35.1104424 63.8169402,35.1104424 64.0013889,35.1104424 C64.2441723,35.1104424 64.4958448,35.1087757 64.7497396,35.1043311 C65.3986435,35.0932198 66.0392139,35.0693303 66.6642283,35.0326628 C66.665895,35.0326628 66.665895,35.0326628 66.6681173,35.0326628 C66.6703396,35.0326628 66.6703396,35.0326628 66.6725619,35.0326628 C67.4342462,34.9848839 68.172041,34.9198824 68.8820575,34.839325 C68.8842797,34.839325 68.886502,34.839325 68.890391,34.839325 C68.8992801,34.839325 68.9081692,34.8348804 68.9165027,34.8348804 C69.706521,34.7437672 70.4554272,34.6309868 71.1498877,34.5009838 C71.2932244,34.4748721 71.4337832,34.4487604 71.5726753,34.4204264 C71.6054538,34.4143151 71.6360101,34.4076483 71.6660108,34.4009815 C72.9793745,34.1320864 74.1144008,33.7826339 74.89553,33.3504016 C74.9366421,33.3265122 74.9777541,33.3031783 75.0171995,33.2792889 C75.0672006,33.2509549 75.1144239,33.2203986 75.1605361,33.1898424 C75.2038705,33.1620639 75.2516493,33.1359522 75.2905391,33.1076182 C76.1694484,33.4198477 76.4105651,33.6998542 76.4383435,33.8126346 Z M76.4450103,28.0075002 L76.4450103,25.8807843 C76.974467,25.6963356 77.4239219,25.492442 77.7772634,25.2691035 L77.7772634,27.109146 C77.7772634,27.3585963 77.3089192,27.6841594 76.4450103,28.0075002 Z" id="Fill-1"></path>
                </g>
            </g>
        </g>
    </g>
</svg>
